<?xml version="1.0" encoding="UTF-8" standalone="no"?>
<svg
   xmlns:dc="http://purl.org/dc/elements/1.1/"
   xmlns:cc="http://creativecommons.org/ns#"
   xmlns:rdf="http://www.w3.org/1999/02/22-rdf-syntax-ns#"
   xmlns:svg="http://www.w3.org/2000/svg"
   xmlns="http://www.w3.org/2000/svg"
   xmlns:sodipodi="http://sodipodi.sourceforge.net/DTD/sodipodi-0.dtd"
   xmlns:inkscape="http://www.inkscape.org/namespaces/inkscape"
   width="24"
   height="24"
   viewBox="0 0 24 24"
   fill="none"
   stroke="currentColor"
   stroke-width="2"
   stroke-linecap="round"
   stroke-linejoin="round"
   class="feather feather-chevron-right"
   version="1.1"
   id="svg3219"
   sodipodi:docname="chevron-right.svg"
   inkscape:version="1.0.2-2 (e86c870879, 2021-01-15)">
  <metadata
     id="metadata3225">
    <rdf:RDF>
      <cc:Work
         rdf:about="">
        <dc:format>image/svg+xml</dc:format>
        <dc:type
           rdf:resource="http://purl.org/dc/dcmitype/StillImage" />
      </cc:Work>
    </rdf:RDF>
  </metadata>
  <defs
     id="defs3223" />
  <sodipodi:namedview
     pagecolor="#ffffff"
     bordercolor="#666666"
     borderopacity="1"
     objecttolerance="10"
     gridtolerance="10"
     guidetolerance="10"
     inkscape:pageopacity="0"
     inkscape:pageshadow="2"
     inkscape:window-width="1920"
     inkscape:window-height="1017"
     id="namedview3221"
     showgrid="false"
     inkscape:zoom="35.416667"
     inkscape:cx="12"
     inkscape:cy="12"
     inkscape:window-x="-8"
     inkscape:window-y="-8"
     inkscape:window-maximized="1"
     inkscape:current-layer="svg3219" />
  <polyline
     points="9 18 15 12 9 6"
     id="polyline3217" />
  <path
     style="fill:#ffffff;stroke:#000000;stroke-width:0.0816378;paint-order:markers fill stroke"
     d="m 8.6472554,18.915932 c -0.1997496,-0.07901 -0.4373076,-0.301364 -0.5354181,-0.501153 -0.067583,-0.137623 -0.078896,-0.195077 -0.078896,-0.400661 0,-0.450159 -0.229902,-0.186315 2.8477937,-3.268236 L 13.622853,12 10.880735,9.2541176 C 7.8030392,6.1721973 8.0329412,6.4360414 8.0329412,5.9858824 c 0,-0.2055842 0.011314,-0.2630388 0.078896,-0.4006613 0.1026767,-0.2090875 0.33629,-0.4232179 0.5494335,-0.5036119 0.2140637,-0.080741 0.5456396,-0.068169 0.7551998,0.028635 0.115777,0.053482 0.7014445,0.6245169 3.2552845,3.1739559 3.530206,3.5241219 3.295304,3.2592449 3.295304,3.7157999 0,0.456555 0.234902,0.191678 -3.295304,3.7158 -2.549988,2.545593 -3.1396821,3.120587 -3.2552845,3.174136 -0.2034709,0.09425 -0.565706,0.106492 -0.7692152,0.026 z"
     id="path3788" />
</svg>
